<svg width="193" height="65" viewBox="0 0 193 65" fill="none" xmlns="http://www.w3.org/2000/svg">
<rect x="0.655433" y="0.134925" width="191.015" height="63.6715" rx="9.94868" fill="black" stroke="#2C2C2C" stroke-width="1.32649"/>
<path d="M40.0734 32.9928C40.0908 31.642 40.4496 30.3175 41.1164 29.1426C41.7833 27.9677 42.7364 26.9806 43.8873 26.273C43.1562 25.2289 42.1917 24.3696 41.0704 23.7634C39.9491 23.1572 38.7019 22.8208 37.4279 22.781C34.7102 22.4957 32.0754 24.4072 30.6905 24.4072C29.2788 24.4072 27.1466 22.8093 24.8504 22.8565C23.3653 22.9045 21.9178 23.3364 20.6492 24.1101C19.3805 24.8838 18.3339 25.9729 17.6114 27.2714C14.4813 32.6906 16.816 40.6549 19.8144 45.0354C21.3145 47.1804 23.0677 49.5764 25.3617 49.4914C27.6066 49.3983 28.445 48.0599 31.1547 48.0599C33.8393 48.0599 34.6259 49.4914 36.9665 49.4374C39.3753 49.3983 40.893 47.2829 42.3405 45.1176C43.4183 43.5892 44.2477 41.9 44.7979 40.1126C43.3985 39.5207 42.2042 38.5299 41.364 37.2638C40.5239 35.9977 40.075 34.5123 40.0734 32.9928Z" fill="white"/>
<path d="M35.6528 19.9C36.9662 18.3234 37.6132 16.2968 37.4565 14.2507C35.4499 14.4615 33.5964 15.4205 32.2653 16.9367C31.6145 17.6774 31.116 18.5391 30.7984 19.4726C30.4808 20.406 30.3502 21.3929 30.4143 22.3769C31.4179 22.3872 32.4108 22.1697 33.3182 21.7406C34.2256 21.3116 35.0238 20.6823 35.6528 19.9Z" fill="white"/>
<path d="M68.4482 44.0602H60.7876L58.9479 49.4924H55.7031L62.9592 29.3948H66.3304L73.5864 49.4924H70.2863L68.4482 44.0602ZM61.581 41.5536H67.6533L64.6599 32.7376H64.5761L61.581 41.5536Z" fill="white"/>
<path d="M89.2635 42.1683C89.2635 46.7217 86.8263 49.6472 83.1485 49.6472C82.2169 49.6959 81.2903 49.4813 80.475 49.0279C79.6596 48.5745 78.9884 47.9007 78.5382 47.0836H78.4686V54.3412H75.4609V34.8411H78.3723V37.2782H78.4276C78.8985 36.465 79.581 35.7947 80.4026 35.3385C81.2241 34.8824 82.154 34.6575 83.0932 34.6878C86.812 34.6878 89.2635 37.6275 89.2635 42.1683ZM86.172 42.1683C86.172 39.2017 84.6389 37.2513 82.2998 37.2513C80.0017 37.2513 78.456 39.2428 78.456 42.1683C78.456 45.1206 80.0017 47.0978 82.2998 47.0978C84.6389 47.0978 86.172 45.1617 86.172 42.1683Z" fill="white"/>
<path d="M105.381 42.1682C105.381 46.7217 102.944 49.6471 99.2657 49.6471C98.334 49.6959 97.4075 49.4813 96.5921 49.0279C95.7768 48.5745 95.1056 47.9007 94.6554 47.0836H94.5858V54.3412H91.5781V34.8411H94.4894V37.2782H94.5447C95.0156 36.465 95.6981 35.7946 96.5197 35.3385C97.3413 34.8824 98.2711 34.6575 99.2103 34.6878C102.929 34.6878 105.381 37.6275 105.381 42.1682ZM102.289 42.1682C102.289 39.2017 100.756 37.2513 98.417 37.2513C96.1189 37.2513 94.5732 39.2427 94.5732 42.1682C94.5732 45.1206 96.1189 47.0978 98.417 47.0978C100.756 47.0978 102.289 45.1617 102.289 42.1682Z" fill="white"/>
<path d="M116.048 43.8938C116.27 45.8868 118.207 47.1954 120.852 47.1954C123.387 47.1954 125.211 45.8868 125.211 44.0897C125.211 42.5298 124.111 41.5957 121.507 40.9556L118.902 40.3281C115.212 39.4368 113.498 37.7108 113.498 34.9102C113.498 31.4426 116.52 29.0608 120.811 29.0608C125.058 29.0608 127.969 31.4426 128.067 34.9102H125.031C124.849 32.9046 123.191 31.6939 120.769 31.6939C118.346 31.6939 116.688 32.9188 116.688 34.7016C116.688 36.1225 117.747 36.9585 120.337 37.5986L122.551 38.1423C126.675 39.1174 128.388 40.7738 128.388 43.7135C128.388 47.4735 125.393 49.8284 120.629 49.8284C116.172 49.8284 113.163 47.5288 112.969 43.8937L116.048 43.8938Z" fill="white"/>
<path d="M134.871 31.374V34.8416H137.658V37.2234H134.871V45.3013C134.871 46.5563 135.429 47.141 136.654 47.141C136.985 47.1353 137.315 47.112 137.643 47.0715V49.439C137.093 49.5419 136.533 49.5885 135.973 49.5781C133.006 49.5781 131.849 48.4639 131.849 45.6221V37.2234H129.719V34.8416H131.849V31.374H134.871Z" fill="white"/>
<path d="M139.281 42.1695C139.281 37.5592 141.997 34.6621 146.231 34.6621C150.479 34.6621 153.182 37.5591 153.182 42.1695C153.182 46.7924 150.493 49.6768 146.231 49.6768C141.97 49.6768 139.281 46.7924 139.281 42.1695ZM150.117 42.1695C150.117 39.0069 148.668 37.1403 146.231 37.1403C143.794 37.1403 142.346 39.0211 142.346 42.1695C142.346 45.3447 143.794 47.197 146.231 47.197C148.668 47.197 150.117 45.3447 150.117 42.1695Z" fill="white"/>
<path d="M155.656 34.8409H158.525V37.3349H158.594C158.789 36.556 159.245 35.8676 159.887 35.3855C160.529 34.9034 161.317 34.657 162.119 34.6876C162.466 34.6864 162.811 34.724 163.149 34.7998V37.6131C162.712 37.4794 162.255 37.418 161.798 37.4314C161.361 37.4136 160.926 37.4907 160.521 37.6572C160.117 37.8237 159.753 38.0757 159.456 38.396C159.158 38.7163 158.933 39.0972 158.796 39.5126C158.66 39.928 158.614 40.3681 158.664 40.8025V49.4937H155.656L155.656 34.8409Z" fill="white"/>
<path d="M177.015 45.1914C176.61 47.8513 174.02 49.6768 170.705 49.6768C166.443 49.6768 163.797 46.8208 163.797 42.239C163.797 37.6429 166.457 34.6621 170.579 34.6621C174.633 34.6621 177.182 37.4469 177.182 41.8897V42.9202H166.833V43.1019C166.785 43.6412 166.853 44.1845 167.031 44.6956C167.209 45.2068 167.494 45.6742 167.867 46.0667C168.24 46.4593 168.692 46.768 169.193 46.9724C169.695 47.1768 170.234 47.2722 170.775 47.2523C171.486 47.3189 172.199 47.1543 172.808 46.783C173.418 46.4116 173.892 45.8534 174.159 45.1914L177.015 45.1914ZM166.847 40.8181H174.173C174.2 40.3333 174.126 39.848 173.957 39.3929C173.787 38.9378 173.526 38.5226 173.188 38.1734C172.851 37.8242 172.445 37.5485 171.996 37.3637C171.547 37.1788 171.064 37.0888 170.579 37.0992C170.089 37.0963 169.603 37.1904 169.15 37.3761C168.697 37.5618 168.285 37.8354 167.938 38.1812C167.591 38.5269 167.316 38.938 167.129 39.3906C166.942 39.8432 166.846 40.3283 166.847 40.8181Z" fill="white"/>
<path d="M59.4522 18.3504H60.7434C60.9657 18.3781 61.1913 18.3594 61.406 18.2956C61.6207 18.2318 61.8199 18.1241 61.991 17.9795C62.162 17.8349 62.3013 17.6564 62.3999 17.4553C62.4986 17.2542 62.5545 17.0348 62.5642 16.811C62.5642 15.9204 61.894 15.3451 60.7576 15.3451C60.5299 15.3133 60.2981 15.3274 60.0759 15.3867C59.8537 15.4459 59.6457 15.5491 59.464 15.6901C59.2824 15.8311 59.1308 16.007 59.0183 16.2076C58.9058 16.4081 58.8346 16.6291 58.8089 16.8577H57.3912C57.4156 16.4428 57.5251 16.0375 57.7129 15.6669C57.9008 15.2962 58.1629 14.9682 58.483 14.7033C58.8031 14.4383 59.1743 14.2421 59.5735 14.1269C59.9727 14.0116 60.3914 13.9798 60.8034 14.0333C62.7048 14.0333 64.0435 15.0978 64.0435 16.63C64.048 17.1434 63.8763 17.6427 63.557 18.0447C63.2377 18.4467 62.7902 18.727 62.2892 18.8388V18.9526C62.8831 18.9789 63.4425 19.2394 63.845 19.677C64.2475 20.1145 64.4603 20.6937 64.4371 21.2878C64.3931 21.7149 64.2643 22.1289 64.0583 22.5056C63.8523 22.8822 63.5731 23.214 63.2372 23.4814C62.9013 23.7488 62.5154 23.9464 62.1021 24.0627C61.6888 24.1791 61.2564 24.2117 60.8304 24.1587C60.4034 24.217 59.9691 24.1886 59.5533 24.0754C59.1376 23.9622 58.7488 23.7664 58.4104 23.4997C58.0719 23.2331 57.7905 22.901 57.5831 22.5233C57.3757 22.1455 57.2465 21.7299 57.2031 21.3012H58.643C58.7299 22.225 59.5786 22.8209 60.8304 22.8209C62.0821 22.8209 62.8992 22.1516 62.8992 21.208C62.8992 20.251 62.1295 19.6615 60.7845 19.6615H59.4522V18.3504Z" fill="white"/>
<path d="M66.0781 21.862C66.0781 20.5502 67.0564 19.7939 68.7887 19.6864L70.7627 19.5726V18.9436C70.7627 18.1739 70.2554 17.7393 69.2707 17.7393C68.4678 17.7393 67.9131 18.034 67.7519 18.5493H66.3595C66.5064 17.2975 67.6855 16.4946 69.3387 16.4946C71.1657 16.4946 72.1962 17.4042 72.1962 18.9436V23.9229H70.8101V22.8988H70.6963C70.4654 23.2662 70.141 23.5657 69.7564 23.7667C69.3719 23.9677 68.9408 24.0631 68.5074 24.043C68.2014 24.0748 67.8922 24.0422 67.5997 23.9472C67.3071 23.8522 67.0377 23.697 66.8088 23.4915C66.58 23.286 66.3967 23.0348 66.2708 22.7541C66.145 22.4735 66.0793 22.1696 66.0781 21.862ZM70.7627 21.2393V20.63L68.983 20.7438C67.9794 20.8109 67.5242 21.1523 67.5242 21.7948C67.5242 22.4507 68.0932 22.8324 68.8756 22.8324C69.1048 22.8556 69.3364 22.8325 69.5565 22.7643C69.7767 22.6962 69.9808 22.5845 70.1569 22.4359C70.333 22.2873 70.4773 22.1047 70.5814 21.8991C70.6855 21.6936 70.7471 21.4692 70.7627 21.2393Z" fill="white"/>
<path d="M76.0086 17.8493V23.9263H74.5703V16.6387H79.3688V17.8493L76.0086 17.8493Z" fill="white"/>
<path d="M88.0869 20.2777C88.0869 22.5931 86.9157 24.0448 85.076 24.0448C84.6244 24.0756 84.1734 23.9768 83.7761 23.7599C83.3788 23.5431 83.0517 23.2172 82.8333 22.8207H82.7195V26.3476H81.2812V16.637H82.6658V17.8414H82.7732C82.9955 17.431 83.3269 17.0901 83.7307 16.8562C84.1346 16.6224 84.5953 16.5047 85.0618 16.5161C86.9157 16.5161 88.0869 17.9615 88.0869 20.2777ZM86.6075 20.2777C86.6075 18.7383 85.8789 17.8082 84.6604 17.8082C83.4498 17.8082 82.6927 18.758 82.6927 20.284C82.6927 21.8029 83.4497 22.7535 84.654 22.7535C85.8789 22.7535 86.6075 21.8234 86.6075 20.2777Z" fill="white"/>
<path d="M90.0007 26.5365V25.2982C90.1563 25.318 90.3132 25.327 90.47 25.3251C90.7765 25.3478 91.0805 25.2565 91.3237 25.0688C91.567 24.8811 91.7324 24.6102 91.7882 24.308L91.8957 23.9532L89.2578 16.6387H90.8241L92.6512 22.4272H92.765L94.5857 16.6387H96.1109L93.3941 24.2274C92.7713 26.0007 92.0822 26.5697 90.5966 26.5697C90.4764 26.5697 90.135 26.5563 90.0007 26.5365Z" fill="white"/>
<path d="M97.2266 21.8578H98.6585C98.7992 22.5003 99.4014 22.8353 100.244 22.8353C101.202 22.8353 101.789 22.4133 101.789 21.7574C101.789 21.0549 101.262 20.7198 100.244 20.7198H99.1532V19.6024H100.225C101.094 19.6024 101.537 19.2681 101.537 18.6589C101.537 18.1239 101.108 17.7153 100.225 17.7153C99.4203 17.7153 98.8323 18.0567 98.739 18.632H97.353C97.4566 17.971 97.8156 17.377 98.3526 16.9778C98.8896 16.5786 99.5619 16.4062 100.225 16.4976C101.957 16.4976 102.948 17.2807 102.948 18.5119C102.956 18.8548 102.846 19.19 102.637 19.4616C102.427 19.7331 102.131 19.9246 101.797 20.0039V20.1177C102.195 20.1689 102.559 20.3642 102.822 20.6665C103.085 20.9687 103.227 21.3569 103.223 21.7574C103.223 23.1428 102.044 24.0594 100.244 24.0594C98.6522 24.0594 97.3593 23.33 97.2266 21.8578Z" fill="white"/>
<path d="M105.297 23.9263V16.6387H106.722V21.6512H106.836L110.195 16.6387H111.62V23.9264H110.195V18.887H110.087L106.722 23.9264L105.297 23.9263Z" fill="white"/>
<path d="M119.475 17.8493H117.18V23.9263H115.74V17.8493H113.445V16.6387H119.475V17.8493Z" fill="white"/>
<path d="M127.221 21.9554C127.025 22.6214 126.601 23.1974 126.024 23.5828C125.446 23.9681 124.752 24.1384 124.062 24.0637C123.581 24.0764 123.104 23.9845 122.663 23.7942C122.222 23.604 121.828 23.3201 121.508 22.9622C121.187 22.6043 120.949 22.181 120.808 21.7217C120.668 21.2623 120.629 20.778 120.695 20.3022C120.631 19.8249 120.671 19.3395 120.811 18.8788C120.951 18.4181 121.188 17.9928 121.506 17.6318C121.825 17.2707 122.218 16.9824 122.657 16.7862C123.097 16.59 123.574 16.4906 124.055 16.4948C126.083 16.4948 127.308 17.8801 127.308 20.1686V20.6705H122.162V20.7511C122.139 21.0185 122.172 21.2879 122.26 21.5417C122.347 21.7955 122.487 22.0282 122.67 22.2248C122.853 22.4214 123.075 22.5776 123.321 22.6834C123.568 22.7891 123.834 22.8421 124.103 22.8388C124.447 22.8799 124.795 22.8179 125.103 22.6606C125.412 22.5032 125.666 22.2578 125.835 21.9553L127.221 21.9554ZM122.162 19.6068H125.841C125.859 19.3623 125.826 19.1167 125.744 18.8858C125.662 18.6549 125.532 18.4438 125.363 18.266C125.194 18.0883 124.99 17.9477 124.764 17.8535C124.538 17.7593 124.294 17.7134 124.049 17.7189C123.8 17.7155 123.553 17.762 123.323 17.8557C123.092 17.9494 122.883 18.0883 122.707 18.2643C122.531 18.4403 122.392 18.6498 122.298 18.8804C122.205 19.1109 122.158 19.3579 122.162 19.6068Z" fill="white"/>
<path d="M133.32 16.6387H136.606C138.032 16.6387 138.868 17.361 138.868 18.4918C138.87 18.8506 138.749 19.1993 138.525 19.4795C138.301 19.7597 137.987 19.9545 137.637 20.0312V20.145C138.062 20.1719 138.461 20.3612 138.751 20.6738C139.041 20.9865 139.2 21.3986 139.195 21.825C139.195 23.0965 138.239 23.9263 136.639 23.9263H133.32V16.6387ZM134.746 17.7426V19.6297H136.172C137.041 19.6297 137.456 19.2955 137.456 18.6791C137.456 18.1109 137.095 17.7426 136.331 17.7426L134.746 17.7426ZM134.746 20.6871V22.8224H136.451C137.302 22.8224 137.757 22.447 137.757 21.7579C137.757 21.0285 137.242 20.6871 136.271 20.6871L134.746 20.6871Z" fill="white"/>
</svg>
