<svg width="217" height="65" viewBox="0 0 217 65" fill="none" xmlns="http://www.w3.org/2000/svg">
<rect x="1.32731" y="0.665442" width="214.891" height="63.6715" rx="9.94868" fill="black" stroke="#2C2C2C" stroke-width="1.32649"/>
<path d="M110.259 35.6477C106.479 35.6477 103.391 38.5267 103.391 42.4833C103.391 46.4399 106.479 49.3189 110.259 49.3189C114.038 49.3189 117.126 46.4238 117.126 42.4833C117.126 38.5428 114.038 35.6477 110.259 35.6477ZM110.259 46.6329C108.184 46.6329 106.399 44.928 106.399 42.4833C106.399 40.0386 108.184 38.3337 110.259 38.3337C112.333 38.3337 114.119 40.0225 114.119 42.4833C114.119 44.9441 112.333 46.6329 110.259 46.6329ZM95.2687 35.6477C91.489 35.6477 88.4009 38.5267 88.4009 42.4833C88.4009 46.4399 91.489 49.3189 95.2687 49.3189C99.0484 49.3189 102.136 46.4238 102.136 42.4833C102.136 38.5428 99.0484 35.6477 95.2687 35.6477ZM95.2687 46.6329C93.1939 46.6329 91.4086 44.928 91.4086 42.4833C91.4086 40.0386 93.1939 38.3337 95.2687 38.3337C97.3435 38.3337 99.1288 40.0225 99.1288 42.4833C99.1288 44.9441 97.3435 46.6329 95.2687 46.6329ZM77.448 37.7547V40.6497H84.3961C84.187 42.2903 83.6402 43.4805 82.8199 44.3007C81.8066 45.314 80.2304 46.4238 77.464 46.4238C73.1858 46.4238 69.8404 42.9819 69.8404 38.7036C69.8404 34.4254 73.1858 30.9834 77.464 30.9834C79.764 30.9834 81.4528 31.8841 82.6912 33.0582L84.7339 31.0156C82.9968 29.359 80.6969 28.0884 77.448 28.0884C71.5935 28.0884 66.6719 32.8492 66.6719 38.7197C66.6719 44.5903 71.5935 49.351 77.448 49.351C80.6164 49.351 82.9968 48.3217 84.8625 46.3755C86.7765 44.4616 87.3716 41.7595 87.3716 39.5882C87.3716 38.9127 87.3233 38.2854 87.2108 37.7708H77.448V37.7547ZM150.323 40.0064C149.76 38.4784 148.023 35.6477 144.469 35.6477C140.914 35.6477 138.019 38.4141 138.019 42.4833C138.019 46.3112 140.914 49.3189 144.806 49.3189C147.943 49.3189 149.76 47.4049 150.5 46.2951L148.168 44.735C147.396 45.8769 146.334 46.6329 144.806 46.6329C143.279 46.6329 142.185 45.9252 141.493 44.5581L150.645 40.7784L150.339 40.0064H150.323ZM140.995 42.2903C140.914 39.6526 143.037 38.3015 144.565 38.3015C145.755 38.3015 146.769 38.8966 147.106 39.7491L140.995 42.2903ZM133.564 48.9168H136.572V28.8121H133.564V48.9168ZM128.642 37.1757H128.546C127.87 36.3715 126.584 35.6477 124.943 35.6477C121.517 35.6477 118.381 38.6554 118.381 42.5155C118.381 46.3755 121.517 49.3349 124.943 49.3349C126.584 49.3349 127.87 48.6112 128.546 47.7748H128.642V48.7559C128.642 51.3776 127.243 52.7769 124.991 52.7769C123.158 52.7769 122.016 51.458 121.549 50.3482L118.928 51.4419C119.684 53.2594 121.678 55.4789 124.991 55.4789C128.514 55.4789 131.489 53.4041 131.489 48.3538V36.0659H128.642V37.1757ZM125.184 46.6329C123.11 46.6329 121.373 44.8958 121.373 42.5155C121.373 40.1351 123.11 38.3498 125.184 38.3498C127.259 38.3498 128.835 40.119 128.835 42.5155C128.835 44.9119 127.227 46.6329 125.184 46.6329ZM164.412 28.8121H157.223V48.9168H160.231V41.2931H164.429C167.758 41.2931 171.023 38.8805 171.023 35.0526C171.023 31.2247 167.758 28.8121 164.429 28.8121H164.412ZM164.477 38.4945H160.215V31.5946H164.477C166.729 31.5946 167.999 33.4603 167.999 35.0365C167.999 36.6127 166.729 38.4784 164.477 38.4784V38.4945ZM183.037 35.6155C180.866 35.6155 178.614 36.5806 177.682 38.6875L180.351 39.7973C180.914 38.6875 181.976 38.3176 183.086 38.3176C184.63 38.3176 186.222 39.2505 186.238 40.9071V41.1162C185.691 40.8106 184.533 40.3442 183.102 40.3442C180.223 40.3442 177.312 41.9204 177.312 44.8637C177.312 47.5496 179.66 49.2867 182.298 49.2867C184.308 49.2867 185.434 48.386 186.125 47.3245H186.222V48.8846H189.117V41.1805C189.117 37.6099 186.447 35.6155 183.005 35.6155H183.037ZM182.667 46.6329C181.686 46.6329 180.319 46.1343 180.319 44.928C180.319 43.384 182.024 42.7889 183.504 42.7889C184.823 42.7889 185.45 43.0784 186.238 43.4644C186.013 45.3301 184.405 46.649 182.667 46.649V46.6329ZM199.684 36.0498L196.242 44.7672H196.146L192.575 36.0498H189.342L194.698 48.2413L191.642 55.0125H194.779L203.029 36.0498H199.7H199.684ZM172.663 48.9168H175.671V28.8121H172.663V48.9168Z" fill="white"/>
<path d="M33.9885 31.8999L16.8594 50.0744C17.3901 52.0527 19.1915 53.5003 21.3306 53.5003C22.1831 53.5003 22.9873 53.2751 23.6789 52.8569L23.7271 52.8248L42.9954 41.7109L33.9724 31.8838L33.9885 31.8999Z" fill="#EA4335"/>
<path d="M51.3097 28.8146H51.2936L42.9784 23.9734L33.6016 32.3208L43.0105 41.7298L51.2936 36.9529C52.7412 36.1648 53.7223 34.6369 53.7223 32.8838C53.7223 31.1306 52.7572 29.6027 51.3097 28.8307V28.8146Z" fill="#FBBC04"/>
<path d="M16.864 15.5933C16.7675 15.9793 16.7031 16.3653 16.7031 16.7835V48.9026C16.7031 49.3208 16.7514 49.7068 16.864 50.0928L34.5721 32.3846L16.864 15.5933Z" fill="#4285F4"/>
<path d="M34.1172 32.8343L42.9793 23.9721L23.7271 12.8101C23.0355 12.3919 22.2152 12.1506 21.3306 12.1506C19.1915 12.1506 17.3901 13.6143 16.8594 15.5765L34.1172 32.8182V32.8343Z" fill="#34A853"/>
<path d="M68.3933 23.6169H67.2031V20.3841H68.1521C68.9884 19.6603 69.3905 18.4379 69.3744 16.6848V11.908H75.824V20.368H76.9016V23.6008H75.7114V21.5582H68.3933V23.6008V23.6169ZM70.629 16.7009C70.645 18.2288 70.3394 19.4512 69.7122 20.4002H74.5855V13.1142H70.629V16.7009Z" fill="white" stroke="white" stroke-width="0.321674" stroke-miterlimit="10"/>
<path d="M86.5703 20.3184C85.6214 21.2995 84.4473 21.782 83.0319 21.782C81.6165 21.782 80.4424 21.2995 79.4935 20.3184C78.5445 19.3373 78.0781 18.1471 78.0781 16.7478C78.0781 15.3485 78.5445 14.1423 79.4935 13.1772C80.4424 12.1961 81.6165 11.7136 83.0319 11.7136C84.4473 11.7136 85.6053 12.1961 86.5703 13.1772C87.5193 14.1583 88.0018 15.3485 88.0018 16.7478C88.0018 18.1471 87.5353 19.3534 86.5864 20.3184H86.5703ZM80.4103 19.5142C81.1179 20.238 82.0025 20.5918 83.0319 20.5918C84.0613 20.5918 84.9459 20.238 85.6535 19.5142C86.3612 18.7904 86.7311 17.8737 86.7311 16.7478C86.7311 15.622 86.3773 14.7052 85.6535 13.9814C84.9459 13.2577 84.0613 12.9038 83.0319 12.9038C82.0025 12.9038 81.1179 13.2577 80.4103 13.9814C79.7026 14.7052 79.3327 15.622 79.3327 16.7478C79.3327 17.8737 79.6865 18.7904 80.4103 19.5142Z" fill="white" stroke="white" stroke-width="0.321674" stroke-miterlimit="10"/>
<path d="M94.2369 21.7829C92.8215 21.7829 91.6313 21.3004 90.6663 20.3354C89.7013 19.3704 89.2188 18.1802 89.2188 16.7327C89.2188 15.2851 89.7013 14.0949 90.6663 13.1299C91.6313 12.1649 92.8215 11.6824 94.2369 11.6824C95.6522 11.6824 96.8746 12.2131 97.7753 13.2586L96.9068 14.0949C96.2473 13.2747 95.3627 12.8726 94.2208 12.8726C93.1753 12.8726 92.2747 13.2264 91.5509 13.9341C90.8271 14.6418 90.4733 15.5746 90.4733 16.7166C90.4733 17.8585 90.8271 18.7914 91.5509 19.499C92.2747 20.2067 93.1593 20.5606 94.2208 20.5606C95.3788 20.5606 96.376 20.0941 97.1802 19.1613L98.0487 20.0298C97.6144 20.5606 97.0515 20.9787 96.3921 21.2843C95.7326 21.5899 95.0089 21.7508 94.2208 21.7508L94.2369 21.7829Z" fill="white" stroke="white" stroke-width="0.321674" stroke-miterlimit="10"/>
<path d="M103.081 21.5726H101.843V13.1126H99.1406V11.9224H105.767V13.1126H103.065V21.5726H103.081Z" fill="white" stroke="white" stroke-width="0.321674" stroke-miterlimit="10"/>
<path d="M114.298 11.9224L110.647 20.0607C110.148 21.2027 109.392 21.7817 108.395 21.7817C108.106 21.7817 107.784 21.7173 107.43 21.5726L107.752 20.4306C107.961 20.5432 108.17 20.6076 108.395 20.6076C108.685 20.6076 108.91 20.5593 109.055 20.4467C109.199 20.3341 109.36 20.125 109.489 19.8355L109.843 19.0635L106.594 11.9384H108.057L110.438 17.4712H110.486L112.818 11.9384H114.282L114.298 11.9224Z" fill="white" stroke="white" stroke-width="0.321674" stroke-miterlimit="10"/>
<path d="M115.695 21.5726V11.9224H122.676V21.5726H121.437V13.1126H116.934V21.5726H115.695Z" fill="white" stroke="white" stroke-width="0.321674" stroke-miterlimit="10"/>
<path d="M124.875 21.5726V11.9224H126.113V16.0559H130.939V11.9224H132.177V21.5726H130.939V17.2139H126.113V21.5726H124.875Z" fill="white" stroke="white" stroke-width="0.321674" stroke-miterlimit="10"/>
<path d="M142.297 20.3184C141.348 21.2995 140.174 21.782 138.758 21.782C137.343 21.782 136.169 21.2995 135.22 20.3184C134.271 19.3373 133.805 18.1471 133.805 16.7478C133.805 15.3485 134.271 14.1423 135.22 13.1772C136.169 12.1961 137.343 11.7136 138.758 11.7136C140.174 11.7136 141.332 12.1961 142.297 13.1772C143.246 14.1583 143.728 15.3485 143.728 16.7478C143.728 18.1471 143.262 19.3534 142.313 20.3184H142.297ZM136.137 19.5142C136.845 20.238 137.729 20.5918 138.758 20.5918C139.788 20.5918 140.672 20.238 141.38 19.5142C142.088 18.7904 142.458 17.8737 142.458 16.7478C142.458 15.622 142.104 14.7052 141.38 13.9814C140.672 13.2577 139.788 12.9038 138.758 12.9038C137.729 12.9038 136.845 13.2577 136.137 13.9814C135.429 14.7052 135.059 15.622 135.059 16.7478C135.059 17.8737 135.413 18.7904 136.137 19.5142Z" fill="white" stroke="white" stroke-width="0.321674" stroke-miterlimit="10"/>
<path d="M148.781 21.5726V11.9224H152.271C153.027 11.9224 153.687 12.1797 154.234 12.6622C154.78 13.1608 155.07 13.7881 155.07 14.544C155.07 15.0104 154.957 15.4125 154.716 15.7503C154.475 16.1041 154.169 16.3615 153.767 16.5384V16.5866C154.25 16.7475 154.636 17.0209 154.941 17.423C155.247 17.8251 155.408 18.2754 155.408 18.8062C155.408 19.5943 155.118 20.2537 154.539 20.7684C153.96 21.2831 153.269 21.5565 152.481 21.5565H148.797L148.781 21.5726ZM150.02 16.0559H152.271C152.738 16.0559 153.108 15.895 153.397 15.5894C153.687 15.2839 153.815 14.9461 153.815 14.5762C153.815 14.2062 153.687 13.8685 153.397 13.5629C153.124 13.2573 152.77 13.0965 152.32 13.0965H150.02V16.0559ZM150.02 20.3824H152.513C152.995 20.3824 153.381 20.2215 153.671 19.8838C153.96 19.546 154.121 19.1922 154.121 18.7901C154.121 18.388 153.976 18.0342 153.655 17.7125C153.349 17.3908 152.947 17.2139 152.448 17.2139H150.004V20.3824H150.02Z" fill="white" stroke="white" stroke-width="0.321674" stroke-miterlimit="10"/>
</svg>
